<svg xmlns="http://www.w3.org/2000/svg"
     width="476" height="617"
     viewBox="-18.9 -62.8 476.0 616.8" fill="none">
  <defs>
    <!-- Background gradient: purple → pink (diagonal) -->
    <linearGradient id="bgGradient" x1="0" y1="0" x2="1" y2="1">
      <stop offset="0%" stop-color="#7C3AED"/>
      <stop offset="100%" stop-color="#E84D8A"/>
    </linearGradient>
    <!-- Circle fill gradient (slightly shifted for depth) -->
    <linearGradient id="circleGradient" x1="0.2" y1="0" x2="0.9" y2="1">
      <stop offset="0%" stop-color="#8B5CF6"/>
      <stop offset="100%" stop-color="#E8508B"/>
    </linearGradient>
    <clipPath id="stickerClip">
      <path d="M 447.68,270.00
           C 447.33,273.73 447.51,271.87 447.15,275.58
           C 446.80,279.29 446.97,277.43 446.62,281.13
           C 446.26,284.83 446.44,282.98 446.09,286.68
           C 445.74,290.37 445.91,288.52 445.57,292.22
           C 445.22,295.91 445.39,294.06 445.05,297.76
           C 444.71,301.45 444.88,299.60 444.54,303.31
           C 444.20,307.01 444.37,305.15 444.03,308.87
           C 443.70,312.59 443.87,310.73 443.53,314.46
           C 443.19,318.20 443.36,316.32 443.02,320.08
           C 442.69,323.84 442.86,321.95 442.51,325.74
           C 442.17,329.52 442.34,327.62 441.98,331.43
           C 441.63,335.24 441.81,333.33 441.43,337.17
           C 441.06,341.01 441.25,339.08 440.85,342.96
           C 440.45,346.84 440.66,344.89 440.23,348.80
           C 439.79,352.71 440.02,350.74 439.55,354.69
           C 439.07,358.63 439.32,356.65 438.80,360.63
           C 438.27,364.61 438.55,362.61 437.97,366.62
           C 437.39,370.63 437.70,368.62 437.05,372.66
           C 436.40,376.70 436.75,374.67 436.02,378.74
           C 435.30,382.80 435.69,380.77 434.88,384.85
           C 434.07,388.94 434.50,386.90 433.60,391.00
           C 432.70,395.11 433.18,393.05 432.17,397.17
           C 431.17,401.29 431.70,399.23 430.59,403.35
           C 429.48,407.48 430.07,405.42 428.84,409.54
           C 427.61,413.66 428.25,411.61 426.90,415.72
           C 425.55,419.83 426.26,417.78 424.77,421.87
           C 423.29,425.96 424.07,423.93 422.45,427.99
           C 420.83,432.06 421.67,430.04 419.91,434.06
           C 418.15,438.09 419.07,436.09 417.16,440.08
           C 415.26,444.06 416.25,442.08 414.20,446.01
           C 412.15,449.94 413.21,448.00 411.01,451.86
           C 408.82,455.72 409.95,453.81 407.61,457.61
           C 405.26,461.40 406.47,459.53 403.98,463.24
           C 401.48,466.95 402.77,465.12 400.13,468.74
           C 397.49,472.36 398.84,470.58 396.06,474.10
           C 393.28,477.62 394.70,475.89 391.78,479.31
           C 388.85,482.73 390.35,481.05 387.29,484.36
           C 384.23,487.67 385.79,486.05 382.60,489.24
           C 379.41,492.43 381.03,490.87 377.72,493.94
           C 374.40,497.01 376.09,495.51 372.65,498.45
           C 369.21,501.40 370.96,499.96 367.40,502.78
           C 363.85,505.59 365.65,504.22 362.00,506.91
           C 358.34,509.59 360.19,508.28 356.43,510.84
           C 352.67,513.39 354.57,512.15 350.72,514.57
           C 346.87,516.98 348.82,515.81 344.88,518.09
           C 340.94,520.38 342.93,519.27 338.91,521.42
           C 334.90,523.57 336.92,522.53 332.83,524.54
           C 328.74,526.56 330.80,525.59 326.64,527.46
           C 322.48,529.33 324.58,528.43 320.35,530.16
           C 316.13,531.89 318.25,531.06 313.98,532.66
           C 309.71,534.27 311.86,533.50 307.54,534.98
           C 303.22,536.45 305.38,535.74 301.02,537.10
           C 296.66,538.45 298.85,537.81 294.45,539.04
           C 290.06,540.28 292.26,539.69 287.83,540.81
           C 283.41,541.92 285.62,541.39 281.17,542.40
           C 276.71,543.40 278.95,542.93 274.47,543.82
           C 269.99,544.71 272.23,544.30 267.73,545.06
           C 263.23,545.83 265.48,545.47 260.96,546.13
           C 256.44,546.78 258.70,546.49 254.17,547.03
           C 249.63,547.57 251.90,547.33 247.36,547.74
           C 242.81,548.16 245.08,547.97 240.53,548.27
           C 235.97,548.57 238.25,548.45 233.69,548.65
           C 229.13,548.85 231.41,548.77 226.85,548.88
           C 222.28,548.99 224.56,548.96 220.00,548.96
           C 215.44,548.97 217.72,548.99 213.15,548.90
           C 208.59,548.81 210.87,548.88 206.31,548.69
           C 201.75,548.51 204.02,548.64 199.47,548.34
           C 194.91,548.04 197.19,548.22 192.64,547.79
           C 188.09,547.37 190.36,547.60 185.83,547.06
           C 181.29,546.51 183.55,546.82 179.03,546.16
           C 174.51,545.51 176.77,545.86 172.27,545.08
           C 167.77,544.31 170.01,544.73 165.53,543.83
           C 161.05,542.94 163.28,543.42 158.83,542.41
           C 154.37,541.40 156.59,541.93 152.17,540.81
           C 147.74,539.68 149.94,540.27 145.55,539.03
           C 141.16,537.78 143.34,538.44 138.99,537.07
           C 134.63,535.69 136.80,536.41 132.48,534.91
           C 128.17,533.41 130.31,534.20 126.05,532.57
           C 121.79,530.94 123.90,531.80 119.70,530.03
           C 115.49,528.26 117.58,529.18 113.44,527.27
           C 109.30,525.36 111.35,526.35 107.28,524.30
           C 103.21,522.25 105.22,523.30 101.23,521.12
           C 97.24,518.93 99.21,520.06 95.30,517.73
           C 91.39,515.41 93.32,516.61 89.50,514.15
           C 85.68,511.69 87.56,512.95 83.84,510.35
           C 80.12,507.76 81.95,509.09 78.33,506.36
           C 74.71,503.63 76.49,505.03 72.98,502.17
           C 69.47,499.31 71.19,500.77 67.80,497.78
           C 64.41,494.79 66.07,496.32 62.80,493.20
           C 59.53,490.09 61.13,491.67 57.99,488.44
           C 54.85,485.21 56.39,486.85 53.38,483.50
           C 50.37,480.16 51.84,481.85 48.97,478.40
           C 46.10,474.94 47.50,476.69 44.77,473.14
           C 42.04,469.58 43.37,471.38 40.79,467.73
           C 38.20,464.08 39.46,465.93 37.02,462.19
           C 34.58,458.46 35.76,460.34 33.47,456.53
           C 31.18,452.72 32.29,454.64 30.14,450.76
           C 27.99,446.89 29.03,448.83 27.03,444.90
           C 25.03,440.96 25.99,442.94 24.13,438.96
           C 22.27,434.97 23.17,436.97 21.45,432.95
           C 19.73,428.92 20.56,430.94 18.97,426.88
           C 17.39,422.83 18.15,424.86 16.70,420.78
           C 15.24,416.70 15.94,418.74 14.61,414.65
           C 13.28,410.56 13.92,412.61 12.70,408.51
           C 11.49,404.42 12.07,406.46 10.97,402.37
           C 9.87,398.27 10.40,400.32 9.39,396.23
           C 8.39,392.15 8.87,394.18 7.97,390.12
           C 7.06,386.05 7.49,388.07 6.67,384.03
           C 5.85,379.98 6.24,381.99 5.50,377.97
           C 4.75,373.95 5.11,375.95 4.43,371.96
           C 3.75,367.96 4.08,369.95 3.46,365.99
           C 2.84,362.02 3.14,364.00 2.57,360.06
           C 1.99,356.13 2.27,358.09 1.74,354.19
           C 1.21,350.29 1.47,352.23 0.98,348.37
           C 0.48,344.50 0.72,346.43 0.25,342.59
           C -0.22,338.76 0.02,340.67 -0.44,336.87
           C -0.89,333.07 -0.66,334.96 -1.10,331.19
           C -1.54,327.41 -1.32,329.29 -1.75,325.55
           C -2.18,321.80 -1.97,323.67 -2.39,319.94
           C -2.82,316.21 -2.60,318.07 -3.03,314.36
           C -3.46,310.65 -3.24,312.51 -3.67,308.81
           C -4.10,305.11 -3.88,306.96 -4.32,303.27
           C -4.75,299.59 -4.53,301.43 -4.97,297.75
           C -5.40,294.06 -5.19,295.91 -5.63,292.22
           C -6.07,288.54 -5.85,290.38 -6.29,286.69
           C -6.73,283.00 -6.51,284.85 -6.96,281.15
           C -7.40,277.45 -7.18,279.30 -7.62,275.59
           C -8.07,271.87 -7.85,273.74 -8.29,270.00
           C -8.74,266.26 -8.51,268.14 -8.96,264.38
           C -9.40,260.62 -9.19,262.51 -9.62,258.72
           C -10.06,254.93 -9.85,256.83 -10.26,253.02
           C -10.67,249.20 -10.46,251.12 -10.86,247.26
           C -11.26,243.41 -11.07,245.35 -11.45,241.45
           C -11.83,237.56 -11.65,239.52 -12.00,235.59
           C -12.35,231.65 -12.19,233.63 -12.50,229.66
           C -12.80,225.69 -12.66,227.68 -12.93,223.67
           C -13.19,219.65 -13.07,221.67 -13.29,217.61
           C -13.50,213.56 -13.40,215.60 -13.57,211.49
           C -13.73,207.39 -13.67,209.45 -13.78,205.30
           C -13.88,201.16 -13.85,203.24 -13.88,199.05
           C -13.91,194.87 -13.91,196.97 -13.87,192.74
           C -13.82,188.51 -13.86,190.64 -13.73,186.37
           C -13.60,182.10 -13.69,184.24 -13.47,179.94
           C -13.26,175.63 -13.39,177.79 -13.08,173.45
           C -12.78,169.11 -12.96,171.29 -12.55,166.92
           C -12.15,162.54 -12.38,164.74 -11.87,160.33
           C -11.36,155.93 -11.64,158.14 -11.03,153.71
           C -10.42,149.28 -10.74,151.50 -10.03,147.05
           C -9.32,142.59 -9.70,144.82 -8.89,140.34
           C -8.08,135.85 -8.52,138.09 -7.60,133.58
           C -6.67,129.08 -7.17,131.33 -6.12,126.81
           C -5.06,122.30 -5.62,124.56 -4.43,120.04
           C -3.25,115.52 -3.87,117.78 -2.55,113.26
           C -1.23,108.74 -1.93,111.00 -0.47,106.49
           C 0.99,101.98 0.23,104.23 1.82,99.73
           C 3.42,95.23 2.58,97.47 4.32,92.99
           C 6.05,88.51 5.15,90.74 7.02,86.28
           C 8.90,81.82 7.92,84.04 9.94,79.61
           C 11.95,75.18 10.91,77.38 13.07,72.99
           C 15.23,68.59 14.11,70.78 16.42,66.42
           C 18.72,62.06 17.53,64.22 19.98,59.91
           C 22.42,55.60 21.16,57.74 23.75,53.48
           C 26.34,49.21 25.01,51.33 27.74,47.12
           C 30.48,42.92 29.08,45.00 31.95,40.86
           C 34.83,36.72 33.36,38.77 36.37,34.71
           C 39.39,30.64 37.85,32.65 41.01,28.66
           C 44.17,24.67 42.55,26.64 45.85,22.73
           C 49.15,18.82 47.47,20.75 50.91,16.93
           C 54.34,13.11 52.59,14.99 56.16,11.27
           C 59.74,7.56 57.91,9.38 61.63,5.77
           C 65.35,2.17 63.46,3.95 67.31,0.47
           C 71.17,-3.01 69.21,-1.30 73.19,-4.66
           C 77.17,-8.02 75.15,-6.37 79.26,-9.60
           C 83.37,-12.83 81.29,-11.25 85.52,-14.34
           C 89.74,-17.44 87.60,-15.93 91.95,-18.88
           C 96.29,-21.83 94.09,-20.40 98.55,-23.20
           C 103.01,-26.01 100.75,-24.65 105.32,-27.30
           C 109.88,-29.96 107.58,-28.67 112.24,-31.17
           C 116.90,-33.67 114.55,-32.46 119.31,-34.80
           C 124.07,-37.13 121.67,-36.01 126.52,-38.18
           C 131.36,-40.35 128.92,-39.30 133.85,-41.31
           C 138.78,-43.31 136.30,-42.35 141.30,-44.18
           C 146.31,-46.01 143.79,-45.14 148.86,-46.79
           C 153.94,-48.44 151.39,-47.66 156.52,-49.13
           C 161.66,-50.60 159.08,-49.91 164.27,-51.20
           C 169.46,-52.49 166.85,-51.89 172.09,-53.00
           C 177.32,-54.10 174.70,-53.60 179.98,-54.51
           C 185.25,-55.43 182.61,-55.02 187.92,-55.75
           C 193.23,-56.48 190.57,-56.16 195.90,-56.70
           C 201.23,-57.24 198.57,-57.02 203.92,-57.37
           C 209.27,-57.72 206.59,-57.59 211.95,-57.75
           C 217.32,-57.91 214.64,-57.88 220.00,-57.85
           C 225.36,-57.82 222.69,-57.88 228.04,-57.66
           C 233.40,-57.44 230.73,-57.60 236.07,-57.19
           C 241.42,-56.78 238.75,-57.04 244.08,-56.44
           C 249.40,-55.84 246.75,-56.18 252.05,-55.40
           C 257.35,-54.61 254.71,-55.05 259.97,-54.07
           C 265.23,-53.10 262.62,-53.63 267.83,-52.47
           C 273.05,-51.31 270.46,-51.94 275.63,-50.59
           C 280.80,-49.25 278.23,-49.97 283.34,-48.44
           C 288.45,-46.91 285.92,-47.72 290.96,-46.02
           C 296.01,-44.31 293.51,-45.21 298.48,-43.33
           C 303.46,-41.45 300.99,-42.43 305.89,-40.38
           C 310.79,-38.33 308.37,-39.39 313.18,-37.18
           C 317.99,-34.96 315.61,-36.11 320.34,-33.72
           C 325.06,-31.34 322.72,-32.57 327.35,-30.03
           C 331.98,-27.49 329.69,-28.79 334.22,-26.10
           C 338.74,-23.40 336.51,-24.78 340.92,-21.94
           C 345.34,-19.09 343.16,-20.55 347.47,-17.56
           C 351.77,-14.57 349.65,-16.10 353.83,-12.97
           C 358.02,-9.84 355.96,-11.44 360.02,-8.18
           C 364.09,-4.92 362.09,-6.58 366.03,-3.20
           C 369.96,0.19 368.03,-1.54 371.84,1.97
           C 375.64,5.48 373.77,3.70 377.44,7.33
           C 381.10,10.96 379.30,9.13 382.83,12.86
           C 386.36,16.59 384.63,14.70 388.03,18.53
           C 391.42,22.36 389.76,20.42 393.01,24.34
           C 396.27,28.25 394.68,26.28 397.80,30.27
           C 400.91,34.26 399.39,32.25 402.37,36.32
           C 405.34,40.38 403.89,38.34 406.73,42.47
           C 409.56,46.61 408.18,44.53 410.87,48.72
           C 413.57,52.92 412.26,50.81 414.81,55.06
           C 417.36,59.32 416.12,57.18 418.53,61.48
           C 420.93,65.78 419.77,63.62 422.03,67.97
           C 424.30,72.31 423.20,70.13 425.33,74.51
           C 427.45,78.90 426.42,76.70 428.41,81.11
           C 430.39,85.53 429.43,83.31 431.28,87.75
           C 433.12,92.19 432.23,89.97 433.94,94.43
           C 435.64,98.89 434.82,96.65 436.39,101.13
           C 437.96,105.60 437.21,103.36 438.64,107.85
           C 440.07,112.33 439.39,110.09 440.69,114.58
           C 441.98,119.06 441.37,116.82 442.53,121.31
           C 443.70,125.80 443.15,123.55 444.18,128.04
           C 445.22,132.52 444.72,130.29 445.64,134.76
           C 446.56,139.22 446.12,137.00 446.94,141.44
           C 447.77,145.88 447.39,143.66 448.11,148.07
           C 448.83,152.49 448.49,150.29 449.11,154.68
           C 449.72,159.07 449.44,156.88 449.95,161.24
           C 450.46,165.60 450.23,163.43 450.64,167.76
           C 451.06,172.09 450.87,169.94 451.19,174.24
           C 451.52,178.54 451.37,176.40 451.61,180.66
           C 451.84,184.92 451.75,182.80 451.90,187.03
           C 452.05,191.25 451.99,189.15 452.07,193.33
           C 452.14,197.52 452.12,195.44 452.12,199.59
           C 452.12,203.74 452.12,201.67 452.06,205.78
           C 452.00,209.89 452.04,207.84 451.93,211.91
           C 451.81,215.97 451.88,213.95 451.72,217.97
           C 451.55,221.99 451.64,219.99 451.43,223.97
           C 451.22,227.94 451.34,225.96 451.08,229.90
           C 450.83,233.84 450.96,231.88 450.68,235.78
           C 450.39,239.68 450.53,237.74 450.23,241.60
           C 449.92,245.47 450.09,243.54 449.77,247.37
           C 449.45,251.20 449.61,249.29 449.27,253.09
           C 448.93,256.89 449.10,254.99 448.74,258.76
           C 448.39,262.53 448.57,260.65 448.22,264.40
           C 447.86,268.14 448.04,266.27 447.68,270.00
           Z"/>
    </clipPath>
  </defs>

  <!-- Die-cut body: gradient background -->
  <path d="M 447.68,270.00
           C 447.33,273.73 447.51,271.87 447.15,275.58
           C 446.80,279.29 446.97,277.43 446.62,281.13
           C 446.26,284.83 446.44,282.98 446.09,286.68
           C 445.74,290.37 445.91,288.52 445.57,292.22
           C 445.22,295.91 445.39,294.06 445.05,297.76
           C 444.71,301.45 444.88,299.60 444.54,303.31
           C 444.20,307.01 444.37,305.15 444.03,308.87
           C 443.70,312.59 443.87,310.73 443.53,314.46
           C 443.19,318.20 443.36,316.32 443.02,320.08
           C 442.69,323.84 442.86,321.95 442.51,325.74
           C 442.17,329.52 442.34,327.62 441.98,331.43
           C 441.63,335.24 441.81,333.33 441.43,337.17
           C 441.06,341.01 441.25,339.08 440.85,342.96
           C 440.45,346.84 440.66,344.89 440.23,348.80
           C 439.79,352.71 440.02,350.74 439.55,354.69
           C 439.07,358.63 439.32,356.65 438.80,360.63
           C 438.27,364.61 438.55,362.61 437.97,366.62
           C 437.39,370.63 437.70,368.62 437.05,372.66
           C 436.40,376.70 436.75,374.67 436.02,378.74
           C 435.30,382.80 435.69,380.77 434.88,384.85
           C 434.07,388.94 434.50,386.90 433.60,391.00
           C 432.70,395.11 433.18,393.05 432.17,397.17
           C 431.17,401.29 431.70,399.23 430.59,403.35
           C 429.48,407.48 430.07,405.42 428.84,409.54
           C 427.61,413.66 428.25,411.61 426.90,415.72
           C 425.55,419.83 426.26,417.78 424.77,421.87
           C 423.29,425.96 424.07,423.93 422.45,427.99
           C 420.83,432.06 421.67,430.04 419.91,434.06
           C 418.15,438.09 419.07,436.09 417.16,440.08
           C 415.26,444.06 416.25,442.08 414.20,446.01
           C 412.15,449.94 413.21,448.00 411.01,451.86
           C 408.82,455.72 409.95,453.81 407.61,457.61
           C 405.26,461.40 406.47,459.53 403.98,463.24
           C 401.48,466.95 402.77,465.12 400.13,468.74
           C 397.49,472.36 398.84,470.58 396.06,474.10
           C 393.28,477.62 394.70,475.89 391.78,479.31
           C 388.85,482.73 390.35,481.05 387.29,484.36
           C 384.23,487.67 385.79,486.05 382.60,489.24
           C 379.41,492.43 381.03,490.87 377.72,493.94
           C 374.40,497.01 376.09,495.51 372.65,498.45
           C 369.21,501.40 370.96,499.96 367.40,502.78
           C 363.85,505.59 365.65,504.22 362.00,506.91
           C 358.34,509.59 360.19,508.28 356.43,510.84
           C 352.67,513.39 354.57,512.15 350.72,514.57
           C 346.87,516.98 348.82,515.81 344.88,518.09
           C 340.94,520.38 342.93,519.27 338.91,521.42
           C 334.90,523.57 336.92,522.53 332.83,524.54
           C 328.74,526.56 330.80,525.59 326.64,527.46
           C 322.48,529.33 324.58,528.43 320.35,530.16
           C 316.13,531.89 318.25,531.06 313.98,532.66
           C 309.71,534.27 311.86,533.50 307.54,534.98
           C 303.22,536.45 305.38,535.74 301.02,537.10
           C 296.66,538.45 298.85,537.81 294.45,539.04
           C 290.06,540.28 292.26,539.69 287.83,540.81
           C 283.41,541.92 285.62,541.39 281.17,542.40
           C 276.71,543.40 278.95,542.93 274.47,543.82
           C 269.99,544.71 272.23,544.30 267.73,545.06
           C 263.23,545.83 265.48,545.47 260.96,546.13
           C 256.44,546.78 258.70,546.49 254.17,547.03
           C 249.63,547.57 251.90,547.33 247.36,547.74
           C 242.81,548.16 245.08,547.97 240.53,548.27
           C 235.97,548.57 238.25,548.45 233.69,548.65
           C 229.13,548.85 231.41,548.77 226.85,548.88
           C 222.28,548.99 224.56,548.96 220.00,548.96
           C 215.44,548.97 217.72,548.99 213.15,548.90
           C 208.59,548.81 210.87,548.88 206.31,548.69
           C 201.75,548.51 204.02,548.64 199.47,548.34
           C 194.91,548.04 197.19,548.22 192.64,547.79
           C 188.09,547.37 190.36,547.60 185.83,547.06
           C 181.29,546.51 183.55,546.82 179.03,546.16
           C 174.51,545.51 176.77,545.86 172.27,545.08
           C 167.77,544.31 170.01,544.73 165.53,543.83
           C 161.05,542.94 163.28,543.42 158.83,542.41
           C 154.37,541.40 156.59,541.93 152.17,540.81
           C 147.74,539.68 149.94,540.27 145.55,539.03
           C 141.16,537.78 143.34,538.44 138.99,537.07
           C 134.63,535.69 136.80,536.41 132.48,534.91
           C 128.17,533.41 130.31,534.20 126.05,532.57
           C 121.79,530.94 123.90,531.80 119.70,530.03
           C 115.49,528.26 117.58,529.18 113.44,527.27
           C 109.30,525.36 111.35,526.35 107.28,524.30
           C 103.21,522.25 105.22,523.30 101.23,521.12
           C 97.24,518.93 99.21,520.06 95.30,517.73
           C 91.39,515.41 93.32,516.61 89.50,514.15
           C 85.68,511.69 87.56,512.95 83.84,510.35
           C 80.12,507.76 81.95,509.09 78.33,506.36
           C 74.71,503.63 76.49,505.03 72.98,502.17
           C 69.47,499.31 71.19,500.77 67.80,497.78
           C 64.41,494.79 66.07,496.32 62.80,493.20
           C 59.53,490.09 61.13,491.67 57.99,488.44
           C 54.85,485.21 56.39,486.85 53.38,483.50
           C 50.37,480.16 51.84,481.85 48.97,478.40
           C 46.10,474.94 47.50,476.69 44.77,473.14
           C 42.04,469.58 43.37,471.38 40.79,467.73
           C 38.20,464.08 39.46,465.93 37.02,462.19
           C 34.58,458.46 35.76,460.34 33.47,456.53
           C 31.18,452.72 32.29,454.64 30.14,450.76
           C 27.99,446.89 29.03,448.83 27.03,444.90
           C 25.03,440.96 25.99,442.94 24.13,438.96
           C 22.27,434.97 23.17,436.97 21.45,432.95
           C 19.73,428.92 20.56,430.94 18.97,426.88
           C 17.39,422.83 18.15,424.86 16.70,420.78
           C 15.24,416.70 15.94,418.74 14.61,414.65
           C 13.28,410.56 13.92,412.61 12.70,408.51
           C 11.49,404.42 12.07,406.46 10.97,402.37
           C 9.87,398.27 10.40,400.32 9.39,396.23
           C 8.39,392.15 8.87,394.18 7.97,390.12
           C 7.06,386.05 7.49,388.07 6.67,384.03
           C 5.85,379.98 6.24,381.99 5.50,377.97
           C 4.75,373.95 5.11,375.95 4.43,371.96
           C 3.75,367.96 4.08,369.95 3.46,365.99
           C 2.84,362.02 3.14,364.00 2.57,360.06
           C 1.99,356.13 2.27,358.09 1.74,354.19
           C 1.21,350.29 1.47,352.23 0.98,348.37
           C 0.48,344.50 0.72,346.43 0.25,342.59
           C -0.22,338.76 0.02,340.67 -0.44,336.87
           C -0.89,333.07 -0.66,334.96 -1.10,331.19
           C -1.54,327.41 -1.32,329.29 -1.75,325.55
           C -2.18,321.80 -1.97,323.67 -2.39,319.94
           C -2.82,316.21 -2.60,318.07 -3.03,314.36
           C -3.46,310.65 -3.24,312.51 -3.67,308.81
           C -4.10,305.11 -3.88,306.96 -4.32,303.27
           C -4.75,299.59 -4.53,301.43 -4.97,297.75
           C -5.40,294.06 -5.19,295.91 -5.63,292.22
           C -6.07,288.54 -5.85,290.38 -6.29,286.69
           C -6.73,283.00 -6.51,284.85 -6.96,281.15
           C -7.40,277.45 -7.18,279.30 -7.62,275.59
           C -8.07,271.87 -7.85,273.74 -8.29,270.00
           C -8.74,266.26 -8.51,268.14 -8.96,264.38
           C -9.40,260.62 -9.19,262.51 -9.62,258.72
           C -10.06,254.93 -9.85,256.83 -10.26,253.02
           C -10.67,249.20 -10.46,251.12 -10.86,247.26
           C -11.26,243.41 -11.07,245.35 -11.45,241.45
           C -11.83,237.56 -11.65,239.52 -12.00,235.59
           C -12.35,231.65 -12.19,233.63 -12.50,229.66
           C -12.80,225.69 -12.66,227.68 -12.93,223.67
           C -13.19,219.65 -13.07,221.67 -13.29,217.61
           C -13.50,213.56 -13.40,215.60 -13.57,211.49
           C -13.73,207.39 -13.67,209.45 -13.78,205.30
           C -13.88,201.16 -13.85,203.24 -13.88,199.05
           C -13.91,194.87 -13.91,196.97 -13.87,192.74
           C -13.82,188.51 -13.86,190.64 -13.73,186.37
           C -13.60,182.10 -13.69,184.24 -13.47,179.94
           C -13.26,175.63 -13.39,177.79 -13.08,173.45
           C -12.78,169.11 -12.96,171.29 -12.55,166.92
           C -12.15,162.54 -12.38,164.74 -11.87,160.33
           C -11.36,155.93 -11.64,158.14 -11.03,153.71
           C -10.42,149.28 -10.74,151.50 -10.03,147.05
           C -9.32,142.59 -9.70,144.82 -8.89,140.34
           C -8.08,135.85 -8.52,138.09 -7.60,133.58
           C -6.67,129.08 -7.17,131.33 -6.12,126.81
           C -5.06,122.30 -5.62,124.56 -4.43,120.04
           C -3.25,115.52 -3.87,117.78 -2.55,113.26
           C -1.23,108.74 -1.93,111.00 -0.47,106.49
           C 0.99,101.98 0.23,104.23 1.82,99.73
           C 3.42,95.23 2.58,97.47 4.32,92.99
           C 6.05,88.51 5.15,90.74 7.02,86.28
           C 8.90,81.82 7.92,84.04 9.94,79.61
           C 11.95,75.18 10.91,77.38 13.07,72.99
           C 15.23,68.59 14.11,70.78 16.42,66.42
           C 18.72,62.06 17.53,64.22 19.98,59.91
           C 22.42,55.60 21.16,57.74 23.75,53.48
           C 26.34,49.21 25.01,51.33 27.74,47.12
           C 30.48,42.92 29.08,45.00 31.95,40.86
           C 34.83,36.72 33.36,38.77 36.37,34.71
           C 39.39,30.64 37.85,32.65 41.01,28.66
           C 44.17,24.67 42.55,26.64 45.85,22.73
           C 49.15,18.82 47.47,20.75 50.91,16.93
           C 54.34,13.11 52.59,14.99 56.16,11.27
           C 59.74,7.56 57.91,9.38 61.63,5.77
           C 65.35,2.17 63.46,3.95 67.31,0.47
           C 71.17,-3.01 69.21,-1.30 73.19,-4.66
           C 77.17,-8.02 75.15,-6.37 79.26,-9.60
           C 83.37,-12.83 81.29,-11.25 85.52,-14.34
           C 89.74,-17.44 87.60,-15.93 91.95,-18.88
           C 96.29,-21.83 94.09,-20.40 98.55,-23.20
           C 103.01,-26.01 100.75,-24.65 105.32,-27.30
           C 109.88,-29.96 107.58,-28.67 112.24,-31.17
           C 116.90,-33.67 114.55,-32.46 119.31,-34.80
           C 124.07,-37.13 121.67,-36.01 126.52,-38.18
           C 131.36,-40.35 128.92,-39.30 133.85,-41.31
           C 138.78,-43.31 136.30,-42.35 141.30,-44.18
           C 146.31,-46.01 143.79,-45.14 148.86,-46.79
           C 153.94,-48.44 151.39,-47.66 156.52,-49.13
           C 161.66,-50.60 159.08,-49.91 164.27,-51.20
           C 169.46,-52.49 166.85,-51.89 172.09,-53.00
           C 177.32,-54.10 174.70,-53.60 179.98,-54.51
           C 185.25,-55.43 182.61,-55.02 187.92,-55.75
           C 193.23,-56.48 190.57,-56.16 195.90,-56.70
           C 201.23,-57.24 198.57,-57.02 203.92,-57.37
           C 209.27,-57.72 206.59,-57.59 211.95,-57.75
           C 217.32,-57.91 214.64,-57.88 220.00,-57.85
           C 225.36,-57.82 222.69,-57.88 228.04,-57.66
           C 233.40,-57.44 230.73,-57.60 236.07,-57.19
           C 241.42,-56.78 238.75,-57.04 244.08,-56.44
           C 249.40,-55.84 246.75,-56.18 252.05,-55.40
           C 257.35,-54.61 254.71,-55.05 259.97,-54.07
           C 265.23,-53.10 262.62,-53.63 267.83,-52.47
           C 273.05,-51.31 270.46,-51.94 275.63,-50.59
           C 280.80,-49.25 278.23,-49.97 283.34,-48.44
           C 288.45,-46.91 285.92,-47.72 290.96,-46.02
           C 296.01,-44.31 293.51,-45.21 298.48,-43.33
           C 303.46,-41.45 300.99,-42.43 305.89,-40.38
           C 310.79,-38.33 308.37,-39.39 313.18,-37.18
           C 317.99,-34.96 315.61,-36.11 320.34,-33.72
           C 325.06,-31.34 322.72,-32.57 327.35,-30.03
           C 331.98,-27.49 329.69,-28.79 334.22,-26.10
           C 338.74,-23.40 336.51,-24.78 340.92,-21.94
           C 345.34,-19.09 343.16,-20.55 347.47,-17.56
           C 351.77,-14.57 349.65,-16.10 353.83,-12.97
           C 358.02,-9.84 355.96,-11.44 360.02,-8.18
           C 364.09,-4.92 362.09,-6.58 366.03,-3.20
           C 369.96,0.19 368.03,-1.54 371.84,1.97
           C 375.64,5.48 373.77,3.70 377.44,7.33
           C 381.10,10.96 379.30,9.13 382.83,12.86
           C 386.36,16.59 384.63,14.70 388.03,18.53
           C 391.42,22.36 389.76,20.42 393.01,24.34
           C 396.27,28.25 394.68,26.28 397.80,30.27
           C 400.91,34.26 399.39,32.25 402.37,36.32
           C 405.34,40.38 403.89,38.34 406.73,42.47
           C 409.56,46.61 408.18,44.53 410.87,48.72
           C 413.57,52.92 412.26,50.81 414.81,55.06
           C 417.36,59.32 416.12,57.18 418.53,61.48
           C 420.93,65.78 419.77,63.62 422.03,67.97
           C 424.30,72.31 423.20,70.13 425.33,74.51
           C 427.45,78.90 426.42,76.70 428.41,81.11
           C 430.39,85.53 429.43,83.31 431.28,87.75
           C 433.12,92.19 432.23,89.97 433.94,94.43
           C 435.64,98.89 434.82,96.65 436.39,101.13
           C 437.96,105.60 437.21,103.36 438.64,107.85
           C 440.07,112.33 439.39,110.09 440.69,114.58
           C 441.98,119.06 441.37,116.82 442.53,121.31
           C 443.70,125.80 443.15,123.55 444.18,128.04
           C 445.22,132.52 444.72,130.29 445.64,134.76
           C 446.56,139.22 446.12,137.00 446.94,141.44
           C 447.77,145.88 447.39,143.66 448.11,148.07
           C 448.83,152.49 448.49,150.29 449.11,154.68
           C 449.72,159.07 449.44,156.88 449.95,161.24
           C 450.46,165.60 450.23,163.43 450.64,167.76
           C 451.06,172.09 450.87,169.94 451.19,174.24
           C 451.52,178.54 451.37,176.40 451.61,180.66
           C 451.84,184.92 451.75,182.80 451.90,187.03
           C 452.05,191.25 451.99,189.15 452.07,193.33
           C 452.14,197.52 452.12,195.44 452.12,199.59
           C 452.12,203.74 452.12,201.67 452.06,205.78
           C 452.00,209.89 452.04,207.84 451.93,211.91
           C 451.81,215.97 451.88,213.95 451.72,217.97
           C 451.55,221.99 451.64,219.99 451.43,223.97
           C 451.22,227.94 451.34,225.96 451.08,229.90
           C 450.83,233.84 450.96,231.88 450.68,235.78
           C 450.39,239.68 450.53,237.74 450.23,241.60
           C 449.92,245.47 450.09,243.54 449.77,247.37
           C 449.45,251.20 449.61,249.29 449.27,253.09
           C 448.93,256.89 449.10,254.99 448.74,258.76
           C 448.39,262.53 448.57,260.65 448.22,264.40
           C 447.86,268.14 448.04,266.27 447.68,270.00
           Z"
        fill="url(#bgGradient)" stroke="none"/>

  <g clip-path="url(#stickerClip)">
    <!-- Semi-transparent ring behind logo circle -->
    <circle cx="220" cy="190" r="155" fill="white" fill-opacity="0.08"/>

    <!-- Logo circle with gradient fill -->
    <circle cx="220" cy="185" r="140" fill="url(#circleGradient)" stroke="white" stroke-opacity="0.25" stroke-width="1.5"/>

    <!-- Lightning Bolt — WHITE -->
    <g transform="translate(220, 185) scale(8) translate(-20, -20)">
      <path d="M22 23H26L18 30V22H14L22 10V23Z" fill="white"/>
    </g>

    <!-- Title "MCP Steroid" — WHITE -->
    <text x="68.5" y="385" text-anchor="start"
          font-family="-apple-system, BlinkMacSystemFont, 'Segoe UI', Roboto, Helvetica, Arial, sans-serif"
          font-weight="700" font-size="44" fill="white" letter-spacing="-0.5">MCP Steroid</text>

    <!-- QR cursor block: white background, dark QR modules -->
    <rect x="339.5" y="354" width="32" height="32"
          rx="2" fill="white" fill-opacity="0.9"/>
    <path d="M339.50,354.00h1.10v1.10h-1.10z M340.60,354.00h1.10v1.10h-1.10z M341.71,354.00h1.10v1.10h-1.10z M342.81,354.00h1.10v1.10h-1.10z M343.91,354.00h1.10v1.10h-1.10z M345.02,354.00h1.10v1.10h-1.10z M346.12,354.00h1.10v1.10h-1.10z M351.64,354.00h1.10v1.10h-1.10z M354.95,354.00h1.10v1.10h-1.10z M358.26,354.00h1.10v1.10h-1.10z M359.36,354.00h1.10v1.10h-1.10z M360.47,354.00h1.10v1.10h-1.10z M361.57,354.00h1.10v1.10h-1.10z M363.78,354.00h1.10v1.10h-1.10z M364.88,354.00h1.10v1.10h-1.10z M365.98,354.00h1.10v1.10h-1.10z M367.09,354.00h1.10v1.10h-1.10z M368.19,354.00h1.10v1.10h-1.10z M369.29,354.00h1.10v1.10h-1.10z M370.40,354.00h1.10v1.10h-1.10z M339.50,355.10h1.10v1.10h-1.10z M346.12,355.10h1.10v1.10h-1.10z M350.53,355.10h1.10v1.10h-1.10z M351.64,355.10h1.10v1.10h-1.10z M352.74,355.10h1.10v1.10h-1.10z M356.05,355.10h1.10v1.10h-1.10z M358.26,355.10h1.10v1.10h-1.10z M361.57,355.10h1.10v1.10h-1.10z M363.78,355.10h1.10v1.10h-1.10z M370.40,355.10h1.10v1.10h-1.10z M339.50,356.21h1.10v1.10h-1.10z M341.71,356.21h1.10v1.10h-1.10z M342.81,356.21h1.10v1.10h-1.10z M343.91,356.21h1.10v1.10h-1.10z M346.12,356.21h1.10v1.10h-1.10z M348.33,356.21h1.10v1.10h-1.10z M350.53,356.21h1.10v1.10h-1.10z M354.95,356.21h1.10v1.10h-1.10z M359.36,356.21h1.10v1.10h-1.10z M360.47,356.21h1.10v1.10h-1.10z M361.57,356.21h1.10v1.10h-1.10z M363.78,356.21h1.10v1.10h-1.10z M365.98,356.21h1.10v1.10h-1.10z M367.09,356.21h1.10v1.10h-1.10z M368.19,356.21h1.10v1.10h-1.10z M370.40,356.21h1.10v1.10h-1.10z M339.50,357.31h1.10v1.10h-1.10z M341.71,357.31h1.10v1.10h-1.10z M342.81,357.31h1.10v1.10h-1.10z M343.91,357.31h1.10v1.10h-1.10z M346.12,357.31h1.10v1.10h-1.10z M348.33,357.31h1.10v1.10h-1.10z M350.53,357.31h1.10v1.10h-1.10z M351.64,357.31h1.10v1.10h-1.10z M356.05,357.31h1.10v1.10h-1.10z M357.16,357.31h1.10v1.10h-1.10z M358.26,357.31h1.10v1.10h-1.10z M360.47,357.31h1.10v1.10h-1.10z M363.78,357.31h1.10v1.10h-1.10z M365.98,357.31h1.10v1.10h-1.10z M367.09,357.31h1.10v1.10h-1.10z M368.19,357.31h1.10v1.10h-1.10z M370.40,357.31h1.10v1.10h-1.10z M339.50,358.41h1.10v1.10h-1.10z M341.71,358.41h1.10v1.10h-1.10z M342.81,358.41h1.10v1.10h-1.10z M343.91,358.41h1.10v1.10h-1.10z M346.12,358.41h1.10v1.10h-1.10z M348.33,358.41h1.10v1.10h-1.10z M349.43,358.41h1.10v1.10h-1.10z M350.53,358.41h1.10v1.10h-1.10z M352.74,358.41h1.10v1.10h-1.10z M353.84,358.41h1.10v1.10h-1.10z M357.16,358.41h1.10v1.10h-1.10z M358.26,358.41h1.10v1.10h-1.10z M359.36,358.41h1.10v1.10h-1.10z M360.47,358.41h1.10v1.10h-1.10z M361.57,358.41h1.10v1.10h-1.10z M363.78,358.41h1.10v1.10h-1.10z M365.98,358.41h1.10v1.10h-1.10z M367.09,358.41h1.10v1.10h-1.10z M368.19,358.41h1.10v1.10h-1.10z M370.40,358.41h1.10v1.10h-1.10z M339.50,359.52h1.10v1.10h-1.10z M346.12,359.52h1.10v1.10h-1.10z M348.33,359.52h1.10v1.10h-1.10z M350.53,359.52h1.10v1.10h-1.10z M353.84,359.52h1.10v1.10h-1.10z M354.95,359.52h1.10v1.10h-1.10z M356.05,359.52h1.10v1.10h-1.10z M357.16,359.52h1.10v1.10h-1.10z M358.26,359.52h1.10v1.10h-1.10z M363.78,359.52h1.10v1.10h-1.10z M370.40,359.52h1.10v1.10h-1.10z M339.50,360.62h1.10v1.10h-1.10z M340.60,360.62h1.10v1.10h-1.10z M341.71,360.62h1.10v1.10h-1.10z M342.81,360.62h1.10v1.10h-1.10z M343.91,360.62h1.10v1.10h-1.10z M345.02,360.62h1.10v1.10h-1.10z M346.12,360.62h1.10v1.10h-1.10z M348.33,360.62h1.10v1.10h-1.10z M350.53,360.62h1.10v1.10h-1.10z M352.74,360.62h1.10v1.10h-1.10z M354.95,360.62h1.10v1.10h-1.10z M357.16,360.62h1.10v1.10h-1.10z M359.36,360.62h1.10v1.10h-1.10z M361.57,360.62h1.10v1.10h-1.10z M363.78,360.62h1.10v1.10h-1.10z M364.88,360.62h1.10v1.10h-1.10z M365.98,360.62h1.10v1.10h-1.10z M367.09,360.62h1.10v1.10h-1.10z M368.19,360.62h1.10v1.10h-1.10z M369.29,360.62h1.10v1.10h-1.10z M370.40,360.62h1.10v1.10h-1.10z M348.33,361.72h1.10v1.10h-1.10z M349.43,361.72h1.10v1.10h-1.10z M353.84,361.72h1.10v1.10h-1.10z M356.05,361.72h1.10v1.10h-1.10z M359.36,361.72h1.10v1.10h-1.10z M360.47,361.72h1.10v1.10h-1.10z M339.50,362.83h1.10v1.10h-1.10z M341.71,362.83h1.10v1.10h-1.10z M342.81,362.83h1.10v1.10h-1.10z M343.91,362.83h1.10v1.10h-1.10z M345.02,362.83h1.10v1.10h-1.10z M346.12,362.83h1.10v1.10h-1.10z M349.43,362.83h1.10v1.10h-1.10z M351.64,362.83h1.10v1.10h-1.10z M354.95,362.83h1.10v1.10h-1.10z M356.05,362.83h1.10v1.10h-1.10z M357.16,362.83h1.10v1.10h-1.10z M358.26,362.83h1.10v1.10h-1.10z M360.47,362.83h1.10v1.10h-1.10z M363.78,362.83h1.10v1.10h-1.10z M364.88,362.83h1.10v1.10h-1.10z M365.98,362.83h1.10v1.10h-1.10z M367.09,362.83h1.10v1.10h-1.10z M368.19,362.83h1.10v1.10h-1.10z M339.50,363.93h1.10v1.10h-1.10z M341.71,363.93h1.10v1.10h-1.10z M343.91,363.93h1.10v1.10h-1.10z M347.22,363.93h1.10v1.10h-1.10z M348.33,363.93h1.10v1.10h-1.10z M349.43,363.93h1.10v1.10h-1.10z M350.53,363.93h1.10v1.10h-1.10z M357.16,363.93h1.10v1.10h-1.10z M358.26,363.93h1.10v1.10h-1.10z M360.47,363.93h1.10v1.10h-1.10z M361.57,363.93h1.10v1.10h-1.10z M363.78,363.93h1.10v1.10h-1.10z M364.88,363.93h1.10v1.10h-1.10z M365.98,363.93h1.10v1.10h-1.10z M370.40,363.93h1.10v1.10h-1.10z M340.60,365.03h1.10v1.10h-1.10z M341.71,365.03h1.10v1.10h-1.10z M342.81,365.03h1.10v1.10h-1.10z M343.91,365.03h1.10v1.10h-1.10z M345.02,365.03h1.10v1.10h-1.10z M346.12,365.03h1.10v1.10h-1.10z M347.22,365.03h1.10v1.10h-1.10z M348.33,365.03h1.10v1.10h-1.10z M349.43,365.03h1.10v1.10h-1.10z M352.74,365.03h1.10v1.10h-1.10z M356.05,365.03h1.10v1.10h-1.10z M357.16,365.03h1.10v1.10h-1.10z M359.36,365.03h1.10v1.10h-1.10z M362.67,365.03h1.10v1.10h-1.10z M364.88,365.03h1.10v1.10h-1.10z M365.98,365.03h1.10v1.10h-1.10z M339.50,366.14h1.10v1.10h-1.10z M348.33,366.14h1.10v1.10h-1.10z M349.43,366.14h1.10v1.10h-1.10z M351.64,366.14h1.10v1.10h-1.10z M354.95,366.14h1.10v1.10h-1.10z M360.47,366.14h1.10v1.10h-1.10z M361.57,366.14h1.10v1.10h-1.10z M363.78,366.14h1.10v1.10h-1.10z M364.88,366.14h1.10v1.10h-1.10z M367.09,366.14h1.10v1.10h-1.10z M369.29,366.14h1.10v1.10h-1.10z M340.60,367.24h1.10v1.10h-1.10z M342.81,367.24h1.10v1.10h-1.10z M346.12,367.24h1.10v1.10h-1.10z M347.22,367.24h1.10v1.10h-1.10z M348.33,367.24h1.10v1.10h-1.10z M350.53,367.24h1.10v1.10h-1.10z M351.64,367.24h1.10v1.10h-1.10z M356.05,367.24h1.10v1.10h-1.10z M358.26,367.24h1.10v1.10h-1.10z M360.47,367.24h1.10v1.10h-1.10z M367.09,367.24h1.10v1.10h-1.10z M368.19,367.24h1.10v1.10h-1.10z M339.50,368.34h1.10v1.10h-1.10z M340.60,368.34h1.10v1.10h-1.10z M342.81,368.34h1.10v1.10h-1.10z M343.91,368.34h1.10v1.10h-1.10z M347.22,368.34h1.10v1.10h-1.10z M349.43,368.34h1.10v1.10h-1.10z M351.64,368.34h1.10v1.10h-1.10z M353.84,368.34h1.10v1.10h-1.10z M354.95,368.34h1.10v1.10h-1.10z M358.26,368.34h1.10v1.10h-1.10z M360.47,368.34h1.10v1.10h-1.10z M363.78,368.34h1.10v1.10h-1.10z M365.98,368.34h1.10v1.10h-1.10z M370.40,368.34h1.10v1.10h-1.10z M339.50,369.45h1.10v1.10h-1.10z M340.60,369.45h1.10v1.10h-1.10z M345.02,369.45h1.10v1.10h-1.10z M346.12,369.45h1.10v1.10h-1.10z M352.74,369.45h1.10v1.10h-1.10z M353.84,369.45h1.10v1.10h-1.10z M354.95,369.45h1.10v1.10h-1.10z M356.05,369.45h1.10v1.10h-1.10z M357.16,369.45h1.10v1.10h-1.10z M358.26,369.45h1.10v1.10h-1.10z M359.36,369.45h1.10v1.10h-1.10z M365.98,369.45h1.10v1.10h-1.10z M367.09,369.45h1.10v1.10h-1.10z M368.19,369.45h1.10v1.10h-1.10z M340.60,370.55h1.10v1.10h-1.10z M341.71,370.55h1.10v1.10h-1.10z M348.33,370.55h1.10v1.10h-1.10z M350.53,370.55h1.10v1.10h-1.10z M352.74,370.55h1.10v1.10h-1.10z M353.84,370.55h1.10v1.10h-1.10z M357.16,370.55h1.10v1.10h-1.10z M359.36,370.55h1.10v1.10h-1.10z M361.57,370.55h1.10v1.10h-1.10z M362.67,370.55h1.10v1.10h-1.10z M365.98,370.55h1.10v1.10h-1.10z M369.29,370.55h1.10v1.10h-1.10z M340.60,371.66h1.10v1.10h-1.10z M343.91,371.66h1.10v1.10h-1.10z M346.12,371.66h1.10v1.10h-1.10z M347.22,371.66h1.10v1.10h-1.10z M349.43,371.66h1.10v1.10h-1.10z M350.53,371.66h1.10v1.10h-1.10z M351.64,371.66h1.10v1.10h-1.10z M352.74,371.66h1.10v1.10h-1.10z M354.95,371.66h1.10v1.10h-1.10z M358.26,371.66h1.10v1.10h-1.10z M364.88,371.66h1.10v1.10h-1.10z M367.09,371.66h1.10v1.10h-1.10z M368.19,371.66h1.10v1.10h-1.10z M339.50,372.76h1.10v1.10h-1.10z M349.43,372.76h1.10v1.10h-1.10z M351.64,372.76h1.10v1.10h-1.10z M358.26,372.76h1.10v1.10h-1.10z M360.47,372.76h1.10v1.10h-1.10z M361.57,372.76h1.10v1.10h-1.10z M362.67,372.76h1.10v1.10h-1.10z M363.78,372.76h1.10v1.10h-1.10z M364.88,372.76h1.10v1.10h-1.10z M365.98,372.76h1.10v1.10h-1.10z M368.19,372.76h1.10v1.10h-1.10z M370.40,372.76h1.10v1.10h-1.10z M339.50,373.86h1.10v1.10h-1.10z M343.91,373.86h1.10v1.10h-1.10z M345.02,373.86h1.10v1.10h-1.10z M346.12,373.86h1.10v1.10h-1.10z M348.33,373.86h1.10v1.10h-1.10z M349.43,373.86h1.10v1.10h-1.10z M352.74,373.86h1.10v1.10h-1.10z M356.05,373.86h1.10v1.10h-1.10z M357.16,373.86h1.10v1.10h-1.10z M358.26,373.86h1.10v1.10h-1.10z M359.36,373.86h1.10v1.10h-1.10z M361.57,373.86h1.10v1.10h-1.10z M364.88,373.86h1.10v1.10h-1.10z M368.19,373.86h1.10v1.10h-1.10z M339.50,374.97h1.10v1.10h-1.10z M341.71,374.97h1.10v1.10h-1.10z M342.81,374.97h1.10v1.10h-1.10z M345.02,374.97h1.10v1.10h-1.10z M347.22,374.97h1.10v1.10h-1.10z M349.43,374.97h1.10v1.10h-1.10z M350.53,374.97h1.10v1.10h-1.10z M352.74,374.97h1.10v1.10h-1.10z M354.95,374.97h1.10v1.10h-1.10z M356.05,374.97h1.10v1.10h-1.10z M357.16,374.97h1.10v1.10h-1.10z M359.36,374.97h1.10v1.10h-1.10z M365.98,374.97h1.10v1.10h-1.10z M369.29,374.97h1.10v1.10h-1.10z M339.50,376.07h1.10v1.10h-1.10z M341.71,376.07h1.10v1.10h-1.10z M342.81,376.07h1.10v1.10h-1.10z M345.02,376.07h1.10v1.10h-1.10z M346.12,376.07h1.10v1.10h-1.10z M347.22,376.07h1.10v1.10h-1.10z M349.43,376.07h1.10v1.10h-1.10z M350.53,376.07h1.10v1.10h-1.10z M351.64,376.07h1.10v1.10h-1.10z M358.26,376.07h1.10v1.10h-1.10z M360.47,376.07h1.10v1.10h-1.10z M361.57,376.07h1.10v1.10h-1.10z M362.67,376.07h1.10v1.10h-1.10z M363.78,376.07h1.10v1.10h-1.10z M364.88,376.07h1.10v1.10h-1.10z M365.98,376.07h1.10v1.10h-1.10z M368.19,376.07h1.10v1.10h-1.10z M369.29,376.07h1.10v1.10h-1.10z M370.40,376.07h1.10v1.10h-1.10z M348.33,377.17h1.10v1.10h-1.10z M351.64,377.17h1.10v1.10h-1.10z M352.74,377.17h1.10v1.10h-1.10z M353.84,377.17h1.10v1.10h-1.10z M354.95,377.17h1.10v1.10h-1.10z M357.16,377.17h1.10v1.10h-1.10z M358.26,377.17h1.10v1.10h-1.10z M361.57,377.17h1.10v1.10h-1.10z M365.98,377.17h1.10v1.10h-1.10z M367.09,377.17h1.10v1.10h-1.10z M368.19,377.17h1.10v1.10h-1.10z M369.29,377.17h1.10v1.10h-1.10z M370.40,377.17h1.10v1.10h-1.10z M339.50,378.28h1.10v1.10h-1.10z M340.60,378.28h1.10v1.10h-1.10z M341.71,378.28h1.10v1.10h-1.10z M342.81,378.28h1.10v1.10h-1.10z M343.91,378.28h1.10v1.10h-1.10z M345.02,378.28h1.10v1.10h-1.10z M346.12,378.28h1.10v1.10h-1.10z M349.43,378.28h1.10v1.10h-1.10z M350.53,378.28h1.10v1.10h-1.10z M351.64,378.28h1.10v1.10h-1.10z M352.74,378.28h1.10v1.10h-1.10z M353.84,378.28h1.10v1.10h-1.10z M354.95,378.28h1.10v1.10h-1.10z M356.05,378.28h1.10v1.10h-1.10z M357.16,378.28h1.10v1.10h-1.10z M358.26,378.28h1.10v1.10h-1.10z M359.36,378.28h1.10v1.10h-1.10z M360.47,378.28h1.10v1.10h-1.10z M361.57,378.28h1.10v1.10h-1.10z M363.78,378.28h1.10v1.10h-1.10z M365.98,378.28h1.10v1.10h-1.10z M367.09,378.28h1.10v1.10h-1.10z M368.19,378.28h1.10v1.10h-1.10z M339.50,379.38h1.10v1.10h-1.10z M346.12,379.38h1.10v1.10h-1.10z M348.33,379.38h1.10v1.10h-1.10z M349.43,379.38h1.10v1.10h-1.10z M351.64,379.38h1.10v1.10h-1.10z M353.84,379.38h1.10v1.10h-1.10z M357.16,379.38h1.10v1.10h-1.10z M359.36,379.38h1.10v1.10h-1.10z M360.47,379.38h1.10v1.10h-1.10z M361.57,379.38h1.10v1.10h-1.10z M365.98,379.38h1.10v1.10h-1.10z M339.50,380.48h1.10v1.10h-1.10z M341.71,380.48h1.10v1.10h-1.10z M342.81,380.48h1.10v1.10h-1.10z M343.91,380.48h1.10v1.10h-1.10z M346.12,380.48h1.10v1.10h-1.10z M348.33,380.48h1.10v1.10h-1.10z M349.43,380.48h1.10v1.10h-1.10z M354.95,380.48h1.10v1.10h-1.10z M358.26,380.48h1.10v1.10h-1.10z M359.36,380.48h1.10v1.10h-1.10z M361.57,380.48h1.10v1.10h-1.10z M362.67,380.48h1.10v1.10h-1.10z M363.78,380.48h1.10v1.10h-1.10z M364.88,380.48h1.10v1.10h-1.10z M365.98,380.48h1.10v1.10h-1.10z M368.19,380.48h1.10v1.10h-1.10z M339.50,381.59h1.10v1.10h-1.10z M341.71,381.59h1.10v1.10h-1.10z M342.81,381.59h1.10v1.10h-1.10z M343.91,381.59h1.10v1.10h-1.10z M346.12,381.59h1.10v1.10h-1.10z M348.33,381.59h1.10v1.10h-1.10z M349.43,381.59h1.10v1.10h-1.10z M350.53,381.59h1.10v1.10h-1.10z M351.64,381.59h1.10v1.10h-1.10z M352.74,381.59h1.10v1.10h-1.10z M353.84,381.59h1.10v1.10h-1.10z M357.16,381.59h1.10v1.10h-1.10z M358.26,381.59h1.10v1.10h-1.10z M359.36,381.59h1.10v1.10h-1.10z M360.47,381.59h1.10v1.10h-1.10z M361.57,381.59h1.10v1.10h-1.10z M367.09,381.59h1.10v1.10h-1.10z M368.19,381.59h1.10v1.10h-1.10z M369.29,381.59h1.10v1.10h-1.10z M370.40,381.59h1.10v1.10h-1.10z M339.50,382.69h1.10v1.10h-1.10z M341.71,382.69h1.10v1.10h-1.10z M342.81,382.69h1.10v1.10h-1.10z M343.91,382.69h1.10v1.10h-1.10z M346.12,382.69h1.10v1.10h-1.10z M348.33,382.69h1.10v1.10h-1.10z M349.43,382.69h1.10v1.10h-1.10z M350.53,382.69h1.10v1.10h-1.10z M353.84,382.69h1.10v1.10h-1.10z M354.95,382.69h1.10v1.10h-1.10z M356.05,382.69h1.10v1.10h-1.10z M357.16,382.69h1.10v1.10h-1.10z M358.26,382.69h1.10v1.10h-1.10z M360.47,382.69h1.10v1.10h-1.10z M361.57,382.69h1.10v1.10h-1.10z M363.78,382.69h1.10v1.10h-1.10z M364.88,382.69h1.10v1.10h-1.10z M365.98,382.69h1.10v1.10h-1.10z M367.09,382.69h1.10v1.10h-1.10z M368.19,382.69h1.10v1.10h-1.10z M369.29,382.69h1.10v1.10h-1.10z M339.50,383.79h1.10v1.10h-1.10z M346.12,383.79h1.10v1.10h-1.10z M349.43,383.79h1.10v1.10h-1.10z M351.64,383.79h1.10v1.10h-1.10z M354.95,383.79h1.10v1.10h-1.10z M359.36,383.79h1.10v1.10h-1.10z M361.57,383.79h1.10v1.10h-1.10z M362.67,383.79h1.10v1.10h-1.10z M364.88,383.79h1.10v1.10h-1.10z M365.98,383.79h1.10v1.10h-1.10z M367.09,383.79h1.10v1.10h-1.10z M369.29,383.79h1.10v1.10h-1.10z M339.50,384.90h1.10v1.10h-1.10z M340.60,384.90h1.10v1.10h-1.10z M341.71,384.90h1.10v1.10h-1.10z M342.81,384.90h1.10v1.10h-1.10z M343.91,384.90h1.10v1.10h-1.10z M345.02,384.90h1.10v1.10h-1.10z M346.12,384.90h1.10v1.10h-1.10z M348.33,384.90h1.10v1.10h-1.10z M349.43,384.90h1.10v1.10h-1.10z M350.53,384.90h1.10v1.10h-1.10z M353.84,384.90h1.10v1.10h-1.10z M356.05,384.90h1.10v1.10h-1.10z M358.26,384.90h1.10v1.10h-1.10z M360.47,384.90h1.10v1.10h-1.10z M362.67,384.90h1.10v1.10h-1.10z M363.78,384.90h1.10v1.10h-1.10z M364.88,384.90h1.10v1.10h-1.10z M368.19,384.90h1.10v1.10h-1.10z" fill="url(#bgGradient)" fill-opacity="0.85"/>

    <!-- Tagline — white, slightly transparent -->
    <text x="220" y="420" text-anchor="middle"
          font-family="'JetBrains Mono', monospace"
          font-weight="400" font-size="13" fill="white" fill-opacity="0.85">Give AI the whole IDE, not just the files</text>

    <!-- Small social sub-text — white, more transparent -->
    <text x="220" y="448" text-anchor="middle"
          font-family="'JetBrains Mono', monospace"
          font-weight="400" font-size="10" fill="white" fill-opacity="0.55">@jonnyzzz · linkedin.com/in/jonnyzzz</text>
  </g>
</svg>
